<svg xmlns="http://www.w3.org/2000/svg" width="620" height="471" viewBox="0 0 620 471" fill="none"><rect x="12.5722" y="12.5722" width="594.852" height="445.324" rx="82.6769" fill="white"></rect><rect x="12.5722" y="12.5722" width="594.852" height="445.324" rx="82.6769" stroke="#4E4E4E" stroke-width="24.8556"></rect><path d="M291.701 71.3345C209.363 80.4365 145.32 150.243 145.32 235.007C145.32 319.772 209.363 389.578 291.701 398.68V340.504C241.293 331.823 202.944 287.894 202.944 235.007C202.944 182.121 241.293 138.192 291.701 129.511V71.3345Z" fill="#00C29D"></path><path d="M326.111 341.084C377.591 333.313 417.053 288.882 417.053 235.234C417.053 181.586 377.591 137.155 326.111 129.384V71.3345C409.498 79.432 474.676 149.722 474.676 235.234C474.676 320.747 409.498 391.036 326.111 399.134V341.084Z" fill="#4E4E4E"></path></svg>