<svg xmlns="http://www.w3.org/2000/svg" id="Layer_2" data-name="Layer 2" viewBox="0 0 820.83 222.74"><defs><style> .cls-1 { fill: #232323; } .cls-2 { fill: #37bc46; } .cls-3 { fill: #ea3235; } .cls-4 { fill: #f9b70a; } </style></defs><g id="Layer_1-2" data-name="Layer 1"><g><g><path class="cls-1" d="M69.16,212.8c1.24-5.29,2.31-9.96,3.43-14.6q2.66-11.04,13.78-11.62c8.04-.43,16.07-1.03,24.12-1.24,3.26-.08,5.31-1.17,7.16-3.9,6.15-9.08,14.5-15.25,25.36-17.56,12.43-2.64,22.7,5.23,23.46,15.24.26,3.48,2.46,3.69,5.26,3.55,23.01-1.15,46.03-2.24,69.05-3.31,34.25-1.58,68.49-3.13,102.74-4.69.55-.03,1.17-.22,1.65-.06,1.54.52,3.03,1.18,4.54,1.79-1.45,1.21-2.79,3.28-4.38,3.49-18.27,2.47-36.58,4.7-54.88,6.91-31.41,3.79-62.82,7.53-94.23,11.29-10.19,1.22-20.41,2.29-30.56,3.82-2.31.35-4.98,1.85-6.45,3.66-6.68,8.23-14.57,14.46-25.15,16.66-9.77,2.03-18.14-2.04-22.15-11.09-1.32-2.99-3.27-2.91-5.68-2.59-9.49,1.25-18.98,2.56-28.47,3.75-2.57.32-5.18.32-8.57.51Z"></path><path class="cls-3" d="M351.71,86.26c1.07,6.46,1.98,12.14,2.95,17.82,3.58,21.03,1.1,41.75-3.35,62.34-.27,1.23-2.23,2.9-3.5,3-21.99,1.71-44,3.17-65.99,4.78-3.57.26-5.23-.67-4.5-4.59,2.28-12.34,3.19-24.77,1.54-37.27-.55-4.14.93-6.52,4.68-8.57,21.07-11.48,41.99-23.24,62.96-34.89,1.32-.73,2.69-1.36,5.21-2.63Z"></path><path class="cls-4" d="M276.68,115.16c-1.01-2.79-1.63-5.06-2.63-7.15-3.93-8.22-7.78-16.49-12.11-24.49-1.55-2.86-2.01-4.63.45-7.17,15.72-16.24,31.33-32.58,46.86-49,2.26-2.39,3.75-2.38,6.15-.28,15.39,13.46,26.2,29.93,32.93,49.19,1.04,2.99-.82,3.69-2.67,4.63-12.12,6.12-24.26,12.21-36.39,18.3-9.04,4.54-18.08,9.07-27.14,13.58-1.59.79-3.25,1.43-5.46,2.4Z"></path><path class="cls-2" d="M305.57,20.05c-4.81,4.96-9.33,9.81-14.06,14.44-11.69,11.46-23.55,22.75-35.17,34.28-2.66,2.65-4.41,2.58-7.31.3-5.54-4.36-11.48-8.19-17.25-12.26-.89-.63-1.73-1.33-2.93-2.26,4.13-7.17,8.2-14.22,12.25-21.28,5.39-9.38,10.84-18.73,16.08-28.2,1.54-2.78,3.33-3.51,6.4-2.96,14.29,2.58,27.12,8.76,39.6,15.82.91.51,1.6,1.41,2.38,2.11Z"></path><path class="cls-3" d="M197.6,46.3c1.37-4.27,2.55-8.06,3.8-11.84,3.24-9.86,6.59-19.69,9.7-29.59.84-2.67,2.2-3.9,4.96-3.97,10.21-.26,20.42-.63,30.64-.9,1.05-.03,2.11.32,3.95.63-3.44,5.57-6.58,10.71-9.78,15.82-6.48,10.32-13.05,20.59-19.44,30.97-1.61,2.61-3.3,3.67-6.45,2.83-5.46-1.46-11.03-2.53-17.37-3.94Z"></path><path class="cls-4" d="M201.51,4.18c-.84,2.74-1.55,5.53-2.55,8.2-3.78,10.12-7.54,20.25-11.62,30.25-.61,1.49-2.75,2.96-4.41,3.29-3.31.66-6.77.52-10.81.74,1.33-8.64,3.29-16.5,3.59-24.42.39-10.25,4.74-15.64,15.03-16.55,3.33-.3,6.55-1.71,9.83-2.61.32.37.64.74.96,1.1Z"></path><path class="cls-1" d="M59.23,92.92c1.58,2.34,3.4,4.11,3.98,6.23.38,1.38-.65,3.57-1.71,4.86-8.83,10.69-18.55,20.73-26.6,31.97-15.72,21.95-27.61,45.86-32.94,72.63-.33,1.68-.95,3.31-1.95,4.74,8.6-45.37,29.11-84.9,59.23-120.43Z"></path><path class="cls-2" d="M150.56,50.05c0-9.18-.07-18.04.08-26.9.02-1.18.82-2.94,1.77-3.42,4.64-2.35,9.45-4.36,15.14-6.91-1.4,7.11-2.58,13.17-3.81,19.23-.63,3.12-1.35,6.23-2.02,9.35-1.76,8.19-1.94,8.33-11.17,8.65Z"></path><path class="cls-3" d="M140.09,27.44c-.53,8.01-1.01,16.03-1.61,24.04-.2,2.7-4.47,5.88-7.15,5.35-.67-.13-1.54-1.16-1.65-1.87-.95-6.44-1.78-12.91-2.56-19.37-.09-.75.11-1.95.61-2.28,3.76-2.43,7.62-4.7,11.45-7.02.31.38.61.76.92,1.15Z"></path><path class="cls-4" d="M116.18,40.53c.64,7.27,1.2,13.34,1.72,19.42.48,5.58-4.77,4.7-8.11,7.69-1.86-6.14-3.55-11.48-5.04-16.87-.2-.71.35-2.01.97-2.5,3.12-2.46,6.38-4.74,10.46-7.73Z"></path><path class="cls-2" d="M93.96,58.33c1.2,4.76,2.51,9.37,3.5,14.06.76,3.59-2.77,3.99-4.78,5.24-.44.27-2.24-1.52-3.33-2.45-.39-.33-.52-.96-.77-1.45-4.42-8.76-4.04-9.91,5.38-15.4Z"></path><path class="cls-3" d="M75.25,90.87c-7.72-7.6-7.77-8.82-.88-14.63,5.74,6.3,6.11,11.17.88,14.63Z"></path></g><g><g><path d="M424.37,95.25l-5.49,65.67-21.49-23.51,3.16-36.29,15.95-14.66,7.86,8.79ZM404.11,62.81l3.14-36.07,25.37-23.74-5.72,65.65-9.61,9.02-13.19-14.86Z"></path><path d="M484.36,101.13l-3.16,36.3-25.58,23.49,5.49-65.67,9.8-8.79,13.45,14.68ZM463.66,68.65l5.71-65.65,21.47,23.73-3.14,36.07-16.1,14.86-7.94-9.02ZM538.58,70.24l10.82,11.72-12.85,11.72h-50.05l-10.6-11.72,12.62-11.72h50.05ZM542.93,3.07l16.62-.07-1.35,16.96-48.02,43.96h-16.68l1.39-16.87,48.05-43.98ZM561.12,95.26l-5.64,65.66-21.29-23.49,3.11-36.3,15.95-14.66,7.86,8.79Z"></path><path d="M610.4,101.11l-2.74,31.78-25.34,23.51,5.05-61.16,9.71-8.79,13.32,14.66ZM589.89,68.65l5.27-61.01,21.51,23.45-2.74,31.7-16.1,14.87-7.94-9.02ZM695.48,3.06l-25.47,23.45h-48.47l-21.42-23.45h95.36ZM664.83,70.24l10.82,11.72-12.85,11.72h-50.05l-10.6-11.72,12.62-11.72h50.05Z"></path><path d="M805.27,160.86h-85.44l-10.6-11.72,12.62-11.72h62l21.41,23.45ZM820.83,14.67l-12.85,11.84h-64.7l-21.42-23.45h88.15l10.82,11.61ZM761.53,103.59l-21.64,28.41h-17.58l1.35-16.23,24.34-31.56,12.62-1.13.9,20.51ZM805.84,49.41l-21.12,28.01-21.16,2.25.23-12.37,27.05-35.39h16.68l-1.69,17.5Z"></path></g><g><path d="M403.71,203.29l-.57,6.63-5.28,4.89,1.05-12.74,2.02-1.83,2.78,3.05ZM398.71,215.75l5.31-4.89h9.21l2.26,2.44-2.68,2.44h-14.1ZM399.44,196.52l1.1-12.72,4.48,4.89-.57,6.61-3.36,3.1-1.66-1.88ZM417.93,185.27l-2.68,2.47h-9.21l-4.46-4.89h14.1l2.26,2.42ZM419.1,209.92l-2.69,2.44-2.22-2.45.57-6.63,3.33-3.06,1.64,1.83-.63,7.85ZM420.26,196.52l-2.02,1.88-2.78-3.1.57-6.63,2.69-2.44,2.22,2.44-.68,7.85Z"></path><path d="M432.33,202.07l-1.14,13.69-4.48-4.9.66-7.57,3.33-3.06,1.64,1.83ZM428.1,195.31l.66-7.52,5.29-4.95-1.19,13.69-2,1.88-2.75-3.1Z"></path><path d="M444.22,209.92l-2.66,2.45-2.2-2.44.74-8.55,1.98-1.83,2.78,3.06-.63,7.33ZM445.58,194.65l-3.31,3.05-1.7-1.83.62-7.19,2.69-2.44,2.22,2.44-.51,5.97ZM453.88,215.75l2.68-2.44-2.26-2.44h-9.21l-2.63,2.44,2.21,2.44h9.21ZM462.53,182.85l-5.31,4.89h-10.1l-2.21-2.47,2.63-2.42h14.99ZM458.44,198.62l-2.68,2.42h-5.55l-2.21-2.42,2.63-2.47h5.55l2.26,2.47ZM460.18,209.92l-2.66,2.44-2.2-2.44.6-7.33,3.33-3.06,1.69,1.83-.75,8.55Z"></path><path d="M473.4,202.07l-1.14,13.69-4.48-4.9.66-7.57,3.33-3.06,1.64,1.83ZM469.18,195.31l.66-7.52,5.29-4.95-1.19,13.69-2,1.88-2.75-3.1Z"></path><path d="M504.54,185.27l-2.73,2.47h-18.09l-2.21-2.47,2.63-2.42h18.09l2.3,2.42ZM492.98,213.49l-2.62,2.43-2.24-2.43.88-10.2,3.32-3.06,1.64,1.83-.99,11.42ZM494.48,196.48l-2.02,1.88-2.77-3.1.33-3.76,2.68-2.44,2.21,2.44-.42,4.98Z"></path><path d="M512.22,203.3l-.66,7.57-5.33,4.9,1.19-13.69,2.02-1.83,2.78,3.06ZM507.9,196.52l1.1-12.72,4.48,4.89-.57,6.61-3.36,3.1-1.66-1.88ZM529.03,182.85l-5.31,4.89h-9.21l-4.46-4.89h18.99ZM523.53,196.85l2.26,2.44-2.68,2.44h-10.43l-2.21-2.44,2.63-2.44h10.43ZM528.24,202.07l-1.19,13.69-4.48-4.9.66-7.57,3.36-3.05,1.65,1.83ZM523.92,195.3l.58-6.71,5.32-4.82-1.11,12.75-2.02,1.88-2.78-3.1Z"></path><path d="M538.5,203.29l-.57,6.62-5.28,4.89,1.06-12.73,2.02-1.83,2.78,3.06ZM553.37,215.75h-19.88l5.31-4.89h10.1l4.46,4.89ZM534.23,196.52l1.19-13.69,4.48,4.95-.65,7.52-3.36,3.1-1.66-1.88Z"></path><path d="M591.34,215.75h-17.81l-2.21-2.44,2.63-2.44h12.92l4.46,4.89ZM594.59,185.27l-2.68,2.47h-13.49l-4.46-4.89h18.38l2.26,2.42ZM582.23,203.81l-4.51,5.92h-3.67l.28-3.38,5.07-6.58,2.63-.24.19,4.28ZM591.46,192.51l-4.4,5.84-4.41.47.05-2.58,5.64-7.38h3.48l-.35,3.65Z"></path><path d="M598.58,202.07l2.02-1.83,2.78,3.06-.56,6.63-2.69,2.44-2.22-2.44.66-7.85ZM599.1,196.53l1.65,1.88,3.36-3.1.64-7.52-4.48-4.95-1.17,13.69ZM612.45,215.75l2.68-2.44-2.26-2.44h-9.21l-2.63,2.44,2.21,2.44h9.21ZM619.4,202.07l-1.64-1.83-3.32,3.06-.56,6.63,2.2,2.44,2.66-2.44.66-7.85ZM621.09,182.84l-5.33,4.95-.65,7.52,2.78,3.1,2.02-1.88,1.17-13.69Z"></path><path d="M629.68,203.29l-.57,6.62-5.28,4.89,1.06-12.73,2.02-1.83,2.78,3.06ZM644.55,215.75h-19.88l5.31-4.89h10.1l4.46,4.89ZM625.4,196.52l1.19-13.69,4.48,4.95-.65,7.52-3.36,3.1-1.66-1.88Z"></path><path d="M656.03,203.3l-.66,7.57-5.33,4.9,1.19-13.69,2.02-1.83,2.78,3.06ZM651.71,196.52l1.1-12.72,4.48,4.89-.57,6.61-3.36,3.1-1.66-1.88ZM672.84,182.85l-5.31,4.89h-9.21l-4.46-4.89h18.99ZM667.34,196.85l2.26,2.44-2.68,2.44h-10.43l-2.21-2.44,2.63-2.44h10.43ZM672.05,202.07l-1.19,13.69-4.48-4.9.66-7.57,3.36-3.05,1.65,1.83ZM667.73,195.3l.58-6.71,5.32-4.82-1.11,12.75-2.02,1.88-2.78-3.1Z"></path><path d="M678.81,215.75l-2.21-2.44,2.63-2.44h12.6l2.26,2.44-2.68,2.44h-12.6ZM683.06,195.31l-3.35,3.1-1.65-1.88.66-7.85,2.69-2.44,2.22,2.44-.56,6.63ZM693.66,196.85l2.26,2.44-2.68,2.44h-10.43l-2.21-2.44,2.63-2.44h10.43ZM699.86,185.27l-2.68,2.47h-12.55l-2.21-2.47,2.63-2.42h12.55l2.26,2.42ZM697.7,209.92l-2.66,2.44-2.2-2.44.56-6.63,3.32-3.06,1.64,1.83-.66,7.85Z"></path><path d="M705.12,215.75l-2.21-2.44,2.63-2.44h12.6l2.26,2.44-2.68,2.44h-12.6ZM709.38,195.31l-3.35,3.1-1.65-1.88.66-7.85,2.69-2.44,2.22,2.44-.56,6.63ZM719.97,196.85l2.26,2.44-2.68,2.44h-10.43l-2.21-2.44,2.63-2.44h10.43ZM726.18,185.27l-2.68,2.47h-12.55l-2.21-2.47,2.63-2.42h12.55l2.26,2.42ZM724.02,209.92l-2.66,2.44-2.2-2.44.56-6.63,3.32-3.06,1.64,1.83-.66,7.85Z"></path><path d="M730.17,202.07l2.02-1.83,2.78,3.06-.56,6.63-2.69,2.44-2.22-2.44.66-7.85ZM730.69,196.53l1.65,1.88,3.36-3.1.64-7.52-4.48-4.95-1.17,13.69ZM744.04,215.75l2.68-2.44-2.26-2.44h-9.21l-2.63,2.44,2.21,2.44h9.21ZM750.99,202.07l-1.64-1.83-3.32,3.06-.56,6.63,2.2,2.44,2.66-2.44.66-7.85ZM752.68,182.84l-5.33,4.95-.65,7.52,2.78,3.1,2.02-1.88,1.17-13.69Z"></path><path d="M761.31,203.3l-.66,7.57-5.33,4.9,1.14-13.69,2.04-1.83,2.8,3.06ZM756.99,196.52l1.19-13.68,4.47,4.95-.65,7.51-3.36,3.1-1.66-1.88ZM759.5,182.84h7.16s5.79,6.71,5.79,6.71l-.33,3.54h-3.5l-9.12-10.26ZM777.28,202.07l-1.14,13.69-4.48-4.9.66-7.57,3.33-3.06,1.64,1.83ZM773.06,195.31l.65-7.52,5.29-4.95-1.19,13.69-2,1.88-2.75-3.1Z"></path><path d="M787.01,209.92l-2.66,2.45-2.2-2.44.74-8.55,1.98-1.83,2.78,3.06-.63,7.33ZM788.38,194.65l-3.31,3.05-1.7-1.83.62-7.19,2.69-2.44,2.22,2.44-.52,5.97ZM796.67,215.75l2.68-2.44-2.26-2.44h-9.21l-2.63,2.44,2.21,2.44h9.21ZM805.32,182.85l-5.31,4.89h-10.1l-2.21-2.47,2.63-2.42h14.99ZM801.23,198.62l-2.68,2.42h-5.55l-2.21-2.42,2.63-2.47h5.55l2.26,2.47ZM802.97,209.92l-2.66,2.44-2.2-2.44.6-7.33,3.33-3.06,1.69,1.83-.75,8.55Z"></path></g></g></g></g></svg>